# xmcd
#
# Track frame offsets: 
#        150
#        19310
#        31950
#        53733
#        71149
#        84537
#        117632
#        135898
#        150856
#        173686
#        191835
#        210666
#
# Disc length: 3054 seconds
#
# Revision: 0
# Processed by: cddbd v1.5.2PL0 Copyright (c) Steve Scherf et al.
# Submitted via: ExactAudioCopy v0.99pb3
#
DISCID=9d0bec0c
DTITLE=Shades Of Blues - More Than A Promise
DYEAR=2006
DGENRE=Blues
TTITLE0=Just Let Me Dream
TTITLE1=Long Winter Nights
TTITLE2=Long Road
TTITLE3=Wonder - Wander
TTITLE4=Women And Cats
TTITLE5=I Need A Buzz - Follow You
TTITLE6=From This Moment
TTITLE7=Love's On The Line
TTITLE8=Dreams Of Sleep
TTITLE9=Is That All
TTITLE10=More Than Love
TTITLE11=Rainbow
EXTD=
EXTT0=
EXTT1=
EXTT2=
EXTT3=
EXTT4=
EXTT5=
EXTT6=
EXTT7=
EXTT8=
EXTT9=
EXTT10=
EXTT11=
PLAYORDER=
